<svg width="413" height="111" viewBox="0 0 413 111" fill="none" xmlns="http://www.w3.org/2000/svg">
<line x1="139.5" y1="110" x2="139.5" y2="1" stroke="#707070"/>
<line x1="2.23646e-09" y1="0.5" x2="140" y2="0.500001" stroke="#707070"/>
<line x1="2.79045e-09" y1="109.5" x2="140" y2="109.5" stroke="#707070"/>
<line x1="273.5" y1="1" x2="273.5" y2="110" stroke="#707070"/>
<line x1="413" y1="110.5" x2="273" y2="110.5" stroke="#707070"/>
<line x1="413" y1="1.50003" x2="273" y2="1.50001" stroke="#707070"/>
<line x1="140" y1="54.5" x2="273" y2="54.5" stroke="#707070"/>
<path d="M49.824 77C46.5813 77 44.064 76.1467 42.272 74.44C40.48 72.7333 39.584 70.344 39.584 67.272V41.672C39.584 38.6853 40.4373 36.36 42.144 34.696C43.8933 33.032 46.304 32.2 49.376 32.2H58.336C63.2427 32.2 67.488 33.096 71.072 34.888C74.656 36.68 77.3867 39.2613 79.264 42.632C81.184 46.0027 82.144 50.0133 82.144 54.664C82.144 59.3147 81.184 63.3253 79.264 66.696C77.3867 70.024 74.656 72.584 71.072 74.376C67.5307 76.1253 63.2853 77 58.336 77H49.824ZM57.696 70.408C63.0293 70.408 66.9973 69.128 69.6 66.568C72.2027 63.9653 73.504 59.9973 73.504 54.664C73.504 49.3307 72.1813 45.3627 69.536 42.76C66.9333 40.1147 62.9867 38.792 57.696 38.792H50.848C49.9947 38.792 49.312 39.0693 48.8 39.624C48.3307 40.1787 48.096 40.9467 48.096 41.928V67.272C48.096 68.2533 48.3307 69.0213 48.8 69.576C49.312 70.1307 49.9947 70.408 50.848 70.408H57.696ZM111.495 77.64C106.673 77.64 102.492 76.7227 98.9505 74.888C95.4092 73.0533 92.6998 70.408 90.8225 66.952C88.9452 63.496 88.0065 59.4 88.0065 54.664C88.0065 49.928 88.9452 45.832 90.8225 42.376C92.6998 38.8773 95.3878 36.2107 98.8865 34.376C102.428 32.4987 106.588 31.56 111.367 31.56C115.335 31.56 119.004 32.2427 122.375 33.608C125.745 34.9733 128.241 36.7867 129.863 39.048C130.375 39.7307 130.631 40.4347 130.631 41.16C130.631 42.2267 130.055 43.1867 128.903 44.04C128.391 44.424 127.751 44.616 126.983 44.616C126.343 44.616 125.703 44.488 125.062 44.232C124.423 43.9333 123.889 43.528 123.463 43.016C122.012 41.352 120.327 40.1573 118.407 39.432C116.487 38.664 114.14 38.28 111.367 38.28C106.716 38.28 103.089 39.7307 100.487 42.632C97.8838 45.4907 96.5825 49.5013 96.5825 54.664C96.5825 59.784 97.8838 63.7733 100.487 66.632C103.132 69.4907 106.801 70.92 111.495 70.92C116.871 70.92 121.159 69.3413 124.359 66.184C125.681 64.9467 126.897 64.328 128.007 64.328C128.775 64.328 129.479 64.584 130.119 65.096C131.1 65.9493 131.591 66.888 131.591 67.912C131.591 68.68 131.313 69.4267 130.759 70.152C128.924 72.4987 126.3 74.3333 122.887 75.656C119.516 76.9787 115.719 77.64 111.495 77.64ZM161.443 77.64C156.451 77.64 152.141 76.68 148.515 74.76C144.931 72.7973 142.2 70.088 140.323 66.632C138.445 63.1333 137.507 59.1227 137.507 54.6C137.507 50.0773 138.445 46.088 140.323 42.632C142.2 39.1333 144.931 36.424 148.515 34.504C152.141 32.5413 156.451 31.56 161.443 31.56C166.435 31.56 170.723 32.5413 174.307 34.504C177.933 36.424 180.685 39.1333 182.563 42.632C184.44 46.088 185.379 50.0773 185.379 54.6C185.379 59.1227 184.44 63.1333 182.563 66.632C180.685 70.088 177.933 72.7973 174.307 74.76C170.723 76.68 166.435 77.64 161.443 77.64ZM161.443 70.92C166.307 70.92 170.083 69.4693 172.771 66.568C175.459 63.624 176.803 59.6347 176.803 54.6C176.803 49.5227 175.395 45.5333 172.579 42.632C169.805 39.7307 165.88 38.28 160.803 38.28C156.152 38.28 152.525 39.7733 149.923 42.76C147.363 45.704 146.083 49.6507 146.083 54.6C146.083 59.6347 147.427 63.624 150.115 66.568C152.803 69.4693 156.579 70.92 161.443 70.92ZM194.496 77.64C193.216 77.64 192.192 77.2987 191.424 76.616C190.656 75.9333 190.272 74.9947 190.272 73.8V47.432C190.272 42.4827 191.68 38.6 194.496 35.784C197.312 32.968 201.194 31.56 206.144 31.56C208.533 31.56 210.773 32.1573 212.864 33.352C214.997 34.504 216.832 36.168 218.368 38.344C219.861 36.1253 221.653 34.44 223.744 33.288C225.877 32.136 228.181 31.56 230.656 31.56C235.605 31.56 239.488 32.968 242.304 35.784C245.12 38.6 246.528 42.4827 246.528 47.432V73.8C246.528 74.952 246.122 75.8907 245.312 76.616C244.544 77.2987 243.52 77.64 242.24 77.64C240.96 77.64 239.936 77.2987 239.168 76.616C238.4 75.9333 238.016 74.9947 238.016 73.8V47.432C238.016 44.1893 237.418 41.864 236.224 40.456C235.029 39.0053 233.066 38.28 230.336 38.28C227.861 38.28 225.941 39.0693 224.576 40.648C223.253 42.2267 222.592 44.488 222.592 47.432V73.8C222.592 74.9947 222.208 75.9333 221.44 76.616C220.672 77.2987 219.648 77.64 218.368 77.64C217.088 77.64 216.064 77.2987 215.296 76.616C214.57 75.9333 214.208 74.9947 214.208 73.8V47.432C214.208 44.5733 213.525 42.3333 212.16 40.712C210.794 39.0907 208.896 38.28 206.464 38.28C203.733 38.28 201.77 39.0053 200.576 40.456C199.381 41.864 198.784 44.1893 198.784 47.432V73.8C198.784 74.952 198.378 75.8907 197.568 76.616C196.8 77.2987 195.776 77.64 194.496 77.64ZM257.933 77.64C256.653 77.64 255.629 77.2987 254.861 76.616C254.093 75.9333 253.709 74.9947 253.709 73.8V47.432C253.709 42.4827 255.117 38.6 257.933 35.784C260.749 32.968 264.632 31.56 269.581 31.56C271.97 31.56 274.21 32.1573 276.301 33.352C278.434 34.504 280.269 36.168 281.805 38.344C283.298 36.1253 285.09 34.44 287.181 33.288C289.314 32.136 291.618 31.56 294.093 31.56C299.042 31.56 302.925 32.968 305.741 35.784C308.557 38.6 309.965 42.4827 309.965 47.432V73.8C309.965 74.952 309.56 75.8907 308.749 76.616C307.981 77.2987 306.957 77.64 305.677 77.64C304.397 77.64 303.373 77.2987 302.605 76.616C301.837 75.9333 301.453 74.9947 301.453 73.8V47.432C301.453 44.1893 300.856 41.864 299.661 40.456C298.466 39.0053 296.504 38.28 293.773 38.28C291.298 38.28 289.378 39.0693 288.013 40.648C286.69 42.2267 286.029 44.488 286.029 47.432V73.8C286.029 74.9947 285.645 75.9333 284.877 76.616C284.109 77.2987 283.085 77.64 281.805 77.64C280.525 77.64 279.501 77.2987 278.733 76.616C278.008 75.9333 277.645 74.9947 277.645 73.8V47.432C277.645 44.5733 276.962 42.3333 275.597 40.712C274.232 39.0907 272.333 38.28 269.901 38.28C267.17 38.28 265.208 39.0053 264.013 40.456C262.818 41.864 262.221 44.1893 262.221 47.432V73.8C262.221 74.952 261.816 75.8907 261.005 76.616C260.237 77.2987 259.213 77.64 257.933 77.64ZM321.371 77.64C320.091 77.64 319.067 77.2987 318.299 76.616C317.531 75.9333 317.147 74.9947 317.147 73.8V47.432C317.147 42.4827 318.555 38.6 321.371 35.784C324.187 32.968 328.069 31.56 333.019 31.56C335.408 31.56 337.648 32.1573 339.739 33.352C341.872 34.504 343.707 36.168 345.243 38.344C346.736 36.1253 348.528 34.44 350.619 33.288C352.752 32.136 355.056 31.56 357.531 31.56C362.48 31.56 366.363 32.968 369.179 35.784C371.995 38.6 373.403 42.4827 373.403 47.432V73.8C373.403 74.952 372.997 75.8907 372.187 76.616C371.419 77.2987 370.395 77.64 369.115 77.64C367.835 77.64 366.811 77.2987 366.043 76.616C365.275 75.9333 364.891 74.9947 364.891 73.8V47.432C364.891 44.1893 364.293 41.864 363.099 40.456C361.904 39.0053 359.941 38.28 357.211 38.28C354.736 38.28 352.816 39.0693 351.451 40.648C350.128 42.2267 349.467 44.488 349.467 47.432V73.8C349.467 74.9947 349.083 75.9333 348.315 76.616C347.547 77.2987 346.523 77.64 345.243 77.64C343.963 77.64 342.939 77.2987 342.171 76.616C341.445 75.9333 341.083 74.9947 341.083 73.8V47.432C341.083 44.5733 340.4 42.3333 339.035 40.712C337.669 39.0907 335.771 38.28 333.339 38.28C330.608 38.28 328.645 39.0053 327.451 40.456C326.256 41.864 325.659 44.1893 325.659 47.432V73.8C325.659 74.952 325.253 75.8907 324.443 76.616C323.675 77.2987 322.651 77.64 321.371 77.64Z" fill="white"/>
</svg>
